<?xml version="1.0" standalone="no"?>
<!DOCTYPE svg PUBLIC "-//W3C//DTD SVG 20010904//EN"
 "http://www.w3.org/TR/2001/REC-SVG-20010904/DTD/svg10.dtd">
<svg version="1.0" xmlns="http://www.w3.org/2000/svg"
 width="100.000000pt" height="100.000000pt" viewBox="0 0 100.000000 100.000000"
 preserveAspectRatio="xMidYMid meet">
<metadata>
Created by potrace 1.11, written by Peter Selinger 2001-2013
</metadata>
<g transform="translate(0.000000,100.000000) scale(0.100000,-0.100000)"
fill="#000000" stroke="none">
<path d="M398 960 c-95 -23 -154 -56 -224 -125 -144 -142 -181 -356 -94 -541
112 -233 394 -333 630 -221 77 37 186 140 218 207 68 142 67 300 -1 440 -47
96 -187 209 -292 236 -16 4 -37 9 -45 11 -43 11 -133 8 -192 -7z m215 -45 c85
-22 134 -51 197 -114 234 -235 125 -632 -195 -716 -353 -92 -654 273 -494 601
89 185 296 281 492 229z"/>
<path d="M821 643 c-24 -16 -28 -43 -6 -43 8 0 15 4 15 9 0 5 7 11 15 15 9 3
15 0 15 -9 0 -8 -6 -15 -14 -15 -7 0 -19 -7 -26 -15 -18 -21 -27 -19 -34 9 -5
20 -12 24 -43 24 -21 0 -43 -4 -50 -10 -9 -7 -14 -3 -19 16 -4 16 -13 26 -24
26 -17 0 -17 -4 -5 -50 7 -27 12 -50 10 -50 -2 0 2 -12 10 -27 11 -21 11 -30
2 -41 -9 -12 -6 -13 23 -9 57 8 91 28 97 59 l5 27 17 -21 c14 -17 23 -19 47
-13 16 5 34 9 39 9 16 2 17 41 2 79 -17 39 -47 51 -76 30z m-81 -99 c0 -13 -2
-24 -4 -24 -2 0 -11 -3 -19 -6 -18 -7 -30 45 -15 64 15 17 38 -3 38 -34z m130
21 c0 -8 -7 -15 -15 -15 -16 0 -20 12 -8 23 11 12 23 8 23 -8z"/>
<path d="M412 577 c-24 -31 -25 -39 -3 -32 17 5 23 1 31 -21 7 -17 7 -31 1
-37 -12 -12 -31 0 -31 19 0 8 -3 14 -7 15 -5 0 -15 2 -24 4 -8 1 -31 -4 -50
-13 -19 -9 -41 -16 -49 -16 -10 -1 -17 -15 -20 -41 -5 -35 -7 -37 -13 -17 -10
26 -45 48 -58 35 -4 -4 -9 -23 -11 -41 l-2 -33 -18 23 c-10 13 -18 26 -18 31
0 15 -30 7 -30 -9 0 -19 57 -104 70 -104 5 0 14 8 19 18 10 19 11 23 11 54 0
20 4 17 25 -14 28 -41 55 -42 55 -2 0 28 16 31 42 7 16 -14 23 -15 58 -3 22 7
42 21 45 32 4 10 11 18 17 18 5 0 8 -6 5 -14 -3 -8 0 -13 8 -12 24 3 30 15 26
52 -2 25 3 39 16 49 14 11 16 16 6 26 -10 10 -16 10 -25 1 -18 -18 -38 -14
-38 7 0 23 -25 35 -38 18z m-82 -107 c0 -5 -4 -10 -10 -10 -5 0 -10 5 -10 10
0 6 5 10 10 10 6 0 10 -4 10 -10z"/>
<path d="M570 582 c-41 -14 -40 -59 3 -77 24 -11 27 -14 12 -15 -11 -1 -30
-14 -43 -30 l-22 -29 26 5 c37 7 94 31 95 41 0 4 2 16 4 25 4 22 -7 29 -45 30
-18 1 -29 6 -27 12 2 6 14 10 25 8 12 -2 22 1 22 7 0 14 -32 29 -50 23z"/>
<path d="M303 563 c-13 -5 -19 -33 -7 -33 3 0 14 5 25 10 34 19 19 38 -18 23z"/>
</g>
</svg>
